<?xml version="1.0" encoding="UTF-8" standalone="no"?><!DOCTYPE svg PUBLIC "-//W3C//DTD SVG 1.1//EN" "http://www.w3.org/Graphics/SVG/1.1/DTD/svg11.dtd"><svg width="100%" height="100%" viewBox="0 0 334 334" version="1.1" xmlns="http://www.w3.org/2000/svg" xmlns:xlink="http://www.w3.org/1999/xlink" xml:space="preserve" xmlns:serif="http://www.serif.com/" style="fill-rule:evenodd;clip-rule:evenodd;stroke-linejoin:round;stroke-miterlimit:2;"><path d="M281.25,93.75l-110.273,0l-35.56,-35.56c-3.894,-3.921 -9.201,-6.121 -14.727,-6.107l-68.607,0c-11.428,0 -20.833,9.405 -20.833,20.834l0,188.307c0.021,10.983 9.056,20.012 20.039,20.026l231.12,-0c10.788,-0.014 19.66,-8.887 19.674,-19.674l0,-146.993c0,-11.428 -9.404,-20.833 -20.833,-20.833Zm-229.167,-20.833l68.607,-0l20.833,20.833l-89.44,-0l0,-20.833Z" style="fill:#478cbf;fill-rule:nonzero;"/><g><path d="M153.827,128.306c-5.767,1.282 -11.472,3.067 -16.821,5.759c0.123,4.723 0.428,9.248 1.047,13.845c-2.077,1.33 -4.26,2.472 -6.2,4.03c-1.971,1.517 -3.985,2.968 -5.769,4.741c-3.566,-2.358 -7.34,-4.575 -11.228,-6.531c-4.191,4.51 -8.11,9.378 -11.311,14.826c2.515,3.949 5.214,7.918 7.713,11.013l-0,33.434c0.061,0.001 0.122,0.003 0.183,0.008l20.497,1.977c1.073,0.103 1.915,0.968 1.99,2.044l0.632,9.047l17.879,1.276l1.232,-8.351c0.16,-1.082 1.088,-1.885 2.184,-1.885l21.624,0c1.095,0 2.024,0.803 2.183,1.885l1.232,8.351l17.88,-1.276l0.632,-9.047c0.075,-1.076 0.916,-1.94 1.99,-2.044l20.489,-1.977c0.06,-0.005 0.121,-0.007 0.182,-0.008l-0,-2.668l0.008,-0.003l0,-30.763c2.887,-3.633 5.62,-7.641 7.714,-11.013c-3.2,-5.448 -7.121,-10.316 -11.312,-14.826c-3.887,1.956 -7.663,4.173 -11.229,6.531c-1.784,-1.773 -3.794,-3.224 -5.768,-4.741c-1.939,-1.558 -4.125,-2.7 -6.198,-4.03c0.617,-4.597 0.922,-9.122 1.045,-13.845c-5.349,-2.692 -11.053,-4.477 -16.822,-5.759c-2.304,3.872 -4.411,8.064 -6.246,12.163c-2.175,-0.363 -4.361,-0.498 -6.55,-0.524l0,-0.004c-0.015,0 -0.029,0.004 -0.042,0.004c-0.014,-0 -0.028,-0.004 -0.042,-0.004l0,0.004c-2.192,0.026 -4.376,0.161 -6.552,0.524c-1.834,-4.099 -3.939,-8.291 -6.246,-12.163Zm-16.216,48.909c6.822,0 12.352,5.526 12.352,12.346c0,6.825 -5.53,12.354 -12.352,12.354c-6.819,-0 -12.351,-5.529 -12.351,-12.354c0,-6.82 5.532,-12.346 12.351,-12.346Zm58.113,0c6.818,0 12.349,5.526 12.349,12.346c0,6.825 -5.531,12.354 -12.349,12.354c-6.824,-0 -12.354,-5.529 -12.354,-12.354c0,-6.82 5.53,-12.346 12.354,-12.346Zm-29.058,7.225c2.196,0 3.98,1.62 3.98,3.613l-0,11.372c-0,1.995 -1.784,3.613 -3.98,3.613c-2.196,0 -3.976,-1.618 -3.976,-3.613l-0,-11.372c-0,-1.993 1.78,-3.613 3.976,-3.613Z" style="fill:#fff;fill-rule:nonzero;"/><path d="M203.679,215.622l-0.635,9.096c-0.076,1.097 -0.948,1.969 -2.045,2.048l-21.832,1.558c-0.054,0.004 -0.107,0.006 -0.16,0.006c-1.085,-0 -2.021,-0.797 -2.181,-1.886l-1.252,-8.491l-17.814,0l-1.252,8.491c-0.169,1.143 -1.19,1.964 -2.341,1.88l-21.833,-1.558c-1.096,-0.079 -1.968,-0.951 -2.045,-2.048l-0.634,-9.096l-18.431,-1.777c0.009,1.981 0.034,4.151 0.034,4.583c0,19.465 24.693,28.821 55.371,28.929l0.075,0c30.679,-0.108 55.363,-9.464 55.363,-28.929c0,-0.44 0.027,-2.601 0.036,-4.583l-18.424,1.777Z" style="fill:#fff;fill-rule:nonzero;"/><path d="M146.991,190.294c-0,4.527 -3.669,8.196 -8.199,8.196c-4.528,-0 -8.199,-3.669 -8.199,-8.196c-0,-4.527 3.671,-8.199 8.199,-8.199c4.53,-0 8.199,3.672 8.199,8.199" style="fill:#fff;fill-rule:nonzero;"/><path d="M186.343,190.294c0,4.527 3.668,8.196 8.195,8.196c4.531,-0 8.199,-3.669 8.199,-8.196c0,-4.527 -3.668,-8.199 -8.199,-8.199c-4.527,-0 -8.195,3.672 -8.195,8.199" style="fill:#fff;fill-rule:nonzero;"/></g><path d="M285.884,264.004l-7.702,-7.704c2.002,-2.609 3.088,-5.807 3.088,-9.095c-0,-8.196 -6.744,-14.94 -14.94,-14.94c-8.195,0 -14.939,6.744 -14.939,14.94c-0,8.195 6.744,14.939 14.939,14.939c3.288,0 6.486,-1.086 9.095,-3.087l7.708,7.709c0.366,0.366 0.862,0.571 1.379,0.571c1.069,0 1.949,-0.88 1.949,-1.949c0,-0.517 -0.205,-1.013 -0.571,-1.379l-0.006,-0.005Zm-30.569,-16.786c0,-6.05 4.979,-11.028 11.028,-11.028c6.05,0 11.028,4.978 11.028,11.028c0,6.05 -4.978,11.028 -11.028,11.028c-6.047,-0.007 -11.021,-4.981 -11.028,-11.028Z" style="fill:#fff;fill-rule:nonzero;"/></svg>